<svg width="33" height="34" xmlns="http://www.w3.org/2000/svg" xmlns:xlink="http://www.w3.org/1999/xlink" xmlns:svgjs="http://svgjs.com/svgjs" viewBox="0 0.477 33 33.046" fill="#66bf0d"><path paint-order="stroke fill markers" fill-rule="evenodd" d="M19.363 2.53l14.02 14.074a1.988 1.988 0 0 1 0 2.807 1.978 1.978 0 0 1-2.802 0L16.56 5.337a1.987 1.987 0 0 1 0-2.807 1.978 1.978 0 0 1 2.802 0zm-2.802 28.074l14.02-14.074a1.978 1.978 0 0 1 2.802 0 1.987 1.987 0 0 1 0 2.807l-14.02 14.075a1.98 1.98 0 0 1-2.802 0 1.988 1.988 0 0 1 0-2.808zM4 15.998h28A2 2 0 1 1 32 20H4a2 2 0 0 1 0-4z"/></svg>